<?xml version="1.0" encoding="utf-8"?>
<!-- Generator: Adobe Illustrator 22.1.0, SVG Export Plug-In . SVG Version: 6.00 Build 0)  -->
<svg version="1.1" id="Calque_1" xmlns="http://www.w3.org/2000/svg" xmlns:xlink="http://www.w3.org/1999/xlink" x="0px" y="0px"
	 viewBox="0 0 349 464" style="enable-background:new 0 0 349 464;" xml:space="preserve">
<style type="text/css">
	.st0{fill:url(#SVGID_1_);}
	.st1{fill:url(#SVGID_2_);}
</style>
<g>
	<linearGradient id="SVGID_1_" gradientUnits="userSpaceOnUse" x1="174.342" y1="461.5628" x2="174.342" y2="20.3482">
		<stop  offset="0" style="stop-color:#F4314E"/>
		<stop  offset="1" style="stop-color:#7B29FF"/>
	</linearGradient>
	<path class="st0" d="M347.2,31.1C347.2,31.1,347.2,31.1,347.2,31.1l-53-30.6c-1.1-0.6-2.4-0.6-3.5,0L171.7,66.9L57.9,1
		c-1.1-0.6-2.4-0.6-3.5,0L1.5,31.6c0,0,0,0-0.1,0c-1.1,0.6-1.8,1.8-1.8,3v326c0,1.2,0.7,2.4,1.7,3L172.6,464
		c0.5,0.3,1.2,0.5,1.8,0.5c0.7,0,1.3-0.2,1.9-0.6l171.1-110c1-0.6,1.6-1.8,1.6-2.9V34.1C349,32.9,348.3,31.7,347.2,31.1z M56.2,8.1
		L170,73.9c1.1,0.6,2.4,0.6,3.5,0L292.5,7.6l46,26.5l-164.7,95.4L10.2,34.6L56.2,8.1z M174.3,456.8L6.7,358.6V40.7L172,136.6
		c0.5,0.3,1.2,0.5,1.8,0.5c0.6,0,1.2-0.2,1.8-0.5L342,40.2V349L174.3,456.8z"/>
	<linearGradient id="SVGID_2_" gradientUnits="userSpaceOnUse" x1="174.342" y1="461.5628" x2="174.342" y2="20.3482">
		<stop  offset="0" style="stop-color:#F4314E"/>
		<stop  offset="1" style="stop-color:#7B29FF"/>
	</linearGradient>
	<path class="st1" d="M293.4,320.2l0-167.6c0-1.2-0.6-2.3-1.6-3c-1-0.6-2.3-0.7-3.4-0.2L234,176.1l-60.1,29.4l-59-30.8c0,0,0,0,0,0
		l-54.4-28.4c-1.1-0.6-2.4-0.5-3.4,0.1c-1,0.6-1.7,1.8-1.7,3l0,171.2c0,0.1,0,0.1,0,0.2c0,0.1,0,0.2,0,0.2c0,0.1,0,0.1,0,0.2
		c0,0.1,0,0.2,0,0.2c0,0.1,0,0.1,0.1,0.2c0,0.1,0,0.2,0.1,0.2c0,0.1,0.1,0.1,0.1,0.2c0,0.1,0.1,0.1,0.1,0.2c0,0.1,0.1,0.1,0.1,0.2
		c0,0.1,0.1,0.1,0.1,0.2c0.1,0.1,0.1,0.1,0.2,0.2c0,0,0.1,0.1,0.1,0.1c0.1,0.1,0.1,0.1,0.2,0.2c0,0,0.1,0.1,0.1,0.1
		c0.1,0.1,0.1,0.1,0.2,0.1c0.1,0,0.1,0.1,0.2,0.1l0,0l0,0l0,0l115,67.6c0.5,0.3,1.2,0.5,1.8,0.5c0.6,0,1.2-0.2,1.8-0.5l116.1-68.1
		c0,0,0,0,0,0s0,0,0,0l0,0c0,0,0.1-0.1,0.1-0.1c0.1-0.1,0.2-0.1,0.3-0.2c0.1,0,0.1-0.1,0.2-0.1c0.1-0.1,0.1-0.1,0.2-0.2
		c0.1-0.1,0.1-0.1,0.2-0.2c0,0,0.1-0.1,0.1-0.1c0.1-0.1,0.1-0.2,0.2-0.2c0,0,0.1-0.1,0.1-0.1c0-0.1,0.1-0.2,0.1-0.2
		c0-0.1,0.1-0.1,0.1-0.2c0-0.1,0.1-0.2,0.1-0.2c0-0.1,0-0.1,0.1-0.2c0-0.1,0-0.2,0-0.2c0-0.1,0-0.1,0-0.2c0-0.1,0-0.2,0-0.2
		C293.4,320.4,293.4,320.3,293.4,320.2L293.4,320.2L293.4,320.2L293.4,320.2z M286.4,314.2L239,287.1V181.4l47.4-23.2L286.4,314.2z
		 M175.3,212.5l56.7-27.7v102.4l-58.2,35.7l-57.1-35.2V183.6l55.5,28.9C173.1,213,174.3,213,175.3,212.5z M109.7,179.9v107.6
		l-11.9,6.8l-35.5,20.3l0-159.4L109.7,179.9z M173.8,384.2l-108-63.5l45.7-26.1l1.7-1l58.8,36.2c0.6,0.3,1.2,0.5,1.8,0.5
		c0.6,0,1.3-0.2,1.8-0.5l60-36.7l18.6,10.6l28.8,16.4L173.8,384.2z"/>
</g>
</svg>
