<?xml version="1.0" encoding="utf-8"?>
<!-- Generator: Adobe Illustrator 22.1.0, SVG Export Plug-In . SVG Version: 6.00 Build 0)  -->
<svg version="1.1" id="Calque_1" xmlns="http://www.w3.org/2000/svg" xmlns:xlink="http://www.w3.org/1999/xlink" x="0px" y="0px"
	 viewBox="0 0 232 81" style="enable-background:new 0 0 232 81;" xml:space="preserve">
<style type="text/css">
	.st0{fill:none;stroke:#000000;stroke-width:10;stroke-miterlimit:10;}
</style>
<circle class="st0" cx="57" cy="57" r="18"/>
<line class="st0" x1="75" y1="36" x2="75" y2="78"/>
<path class="st0" d="M4.4,70.2c1.8,3.2,5.2,5.3,9.1,5.3c5.7,0,10.4-4.6,10.4-10.4s-4.6-10.4-10.4-10.4l0,0c-4.6,0-8.4-3.8-8.4-8.4
	S8.9,38,13.5,38c2.3,0,4.4,0.9,5.9,2.5c0.9,0.9,1.6,2,2,3.2"/>
<line class="st0" x1="97" y1="0" x2="97" y2="78"/>
<path class="st0" d="M147,60v-0.5c0,8.3-6.7,15-15,15s-15-6.7-15-15V60l0-24"/>
<line class="st0" x1="147" y1="36" x2="147" y2="78"/>
<line class="st0" x1="173" y1="17" x2="173" y2="78"/>
<line class="st0" x1="162" y1="39" x2="189" y2="39"/>
<line class="st0" x1="226" y1="0" x2="226" y2="63"/>
<circle cx="225.5" cy="72.5" r="6.5"/>
</svg>
